<svg xmlns="http://www.w3.org/2000/svg" width="30" height="30"><path fill="#1B1B1B" d="M22.446 25.625c1.715 0 3.155-1.359 3.155-3.125a3.132 3.132 0 00-3.155-3.125c-1.783 0-3.155 1.359-3.155 3.125 0 1.698 1.44 3.125 3.155 3.125zm0-4.719c.854 0 1.577.716 1.577 1.563 0 .846-.723 1.562-1.577 1.562-.855 0-1.578-.716-1.578-1.562 0-.847.723-1.563 1.578-1.563zM12.35 25.625c1.714 0 3.155-1.359 3.155-3.125a3.132 3.132 0 00-3.155-3.125c-1.715 0-3.155 1.359-3.155 3.125 0 1.698 1.44 3.125 3.155 3.125zm.002-4.66c.853 0 1.575.717 1.575 1.563 0 .847-.722 1.563-1.575 1.563-.854 0-1.576-.716-1.576-1.563-.065-.846.657-1.562 1.576-1.562zm-2.1-3.345l14.594-.011c.452 0 .762-.46.762-.767l2.501-8.82c.09-.37-.213-.866-.755-.927-.542-.062-.815.16-1 .606L24.04 15.86l-12.988.026-2.529-9.933-.183-.677c-.133-.398-.452-.874-.994-.874l-4.681-.026c-.542 0-.79.42-.79.79 0 .37.25.755.792.755l4.008.003 2.76 11.056c.09.246.365.64.816.64z"/></svg>