<svg width="28" height="28" xmlns="http://www.w3.org/2000/svg" xmlns:xlink="http://www.w3.org/1999/xlink"><defs><path d="M9.286 1.857a4.416 4.416 0 00-4.411 4.41 4.416 4.416 0 004.41 4.412 4.416 4.416 0 004.411-4.411 4.416 4.416 0 00-4.41-4.41zm0 10.214a5.81 5.81 0 01-5.804-5.803A5.81 5.81 0 019.286.464a5.81 5.81 0 015.803 5.804 5.81 5.81 0 01-5.803 5.803zm-7.64 8.822h-1.4c.075-1.012.423-2.855 1.865-4.407C3.69 14.79 6.102 13.93 9.286 13.93c3.183 0 5.597.86 7.174 2.557 1.443 1.552 1.79 3.395 1.866 4.407h-1.4c-.078-.826-.38-2.278-1.498-3.472-1.304-1.393-3.37-2.1-6.142-2.1-2.772 0-4.838.707-6.142 2.1-1.118 1.194-1.42 2.646-1.498 3.472z" id="a"/></defs><g transform="translate(4.648 2.786)" fill="none" fill-rule="evenodd"><mask id="b" fill="#fff"><use xlink:href="#a"/></mask><use fill="#000" xlink:href="#a"/><g mask="url(#b)" fill="#1B1B1B"><path d="M-4.643-2.786h28v28h-28z"/></g></g></svg>