<svg xmlns="http://www.w3.org/2000/svg" width="30" height="30"><path fill="#1B1B1B" d="M15 27.5c-.32 0-.56-.154-.8-.385L7 17.885c-1.28-1.693-2-3.693-2-5.77C5 6.808 9.48 2.5 15 2.5s10 4.308 10 9.615c0 2.077-.72 4.077-2 5.77l-7.2 9.23c-.24.231-.56.385-.8.385zm0-23.36c-4.592 0-8.281 3.573-8.281 8.019 0 1.746.574 3.414 1.64 4.763L15 25.496l6.641-8.574c1.066-1.429 1.64-3.017 1.64-4.763C23.2 7.713 19.51 4.14 15 4.14zm0 12.735a4.98 4.98 0 01-5-5c0-2.778 2.222-5 5-5s5 2.222 5 5-2.292 5-5 5zm0-8.281a3.282 3.282 0 10.001 6.564A3.282 3.282 0 0015 8.594z"/></svg>